#!OML:ASF E:/inclinewalkrobotboard/Project1/Captureday1/Session1/subject1.ASF
:FULLY-SPECIFIED
:DEGREES
201
root 0 0 0 -0.9740060180042676 -2.7689908577971103 -2.47506576863341
lowerback 9.380085997285377 0.3520790550439328 0.6647549521826273
upperback -0.0333707161982435 0.683992591336055 1.7388355837706269
thorax -5.192671872315982 0.3555454579268464 1.359348480163932
lowerneck -16.4641136681098 -2.9658376408282914 -1.9348414998366255
upperneck 19.882401287480352 -3.800655593492608 0.6967400906496293
head 9.050377710826128 -1.8443490107354732 0.0803291713885379
rclavicle -6.575915986144114E-16 -4.799476213546636E-16
rhumerus -23.63701095745114 -18.8812286291857 -74.85365086485412
rradius 27.04124772647504
rwrist 6.53144060377468
rhand -15.762504003461059 20.929383284679087
rfingers 7.125020000000032
rthumb 10.40722402323704 -8.543271109627142
lclavicle -6.575301142480943E-16 -3.2011754277918025E-16
lhumerus -29.632623180563925 1.4379760095068557 77.99012705347312
lradius 28.753608800984967
lwrist 3.1315841902657127
lhand -23.793220181035863 23.324849972346776
lfingers 7.125020000000039
lthumb 2.62272438038805 52.999963845636216
rfemur -2.0898016393763186 -8.637469573172424 13.513903579280083
rtibia 39.004142984908285
rfoot -9.043368448645952 -8.258151491814319
rtoes 6.4437321038849795
lfemur -14.229844821811717 -0.51500055457233 -20.78344024528969
ltibia 34.32351820723494
lfoot -9.173819776292527 -0.43539238070571784
ltoes -2.042713344879635
202
root 0 0 0 -1.1521488571764422 -2.678748142612079 -2.433278738341712
lowerback 9.470812114457335 0.3484069105037768 0.6787305654272808
upperback 0.027833598214098032 0.6806894329893756 1.7349213728570587
thorax -5.17822908031426 0.3531856045529425 1.345665716449199
lowerneck -16.501190408429103 -2.9857575594607466 -1.94736551202057
upperneck 19.856899852259147 -3.8220409809124747 0.6779432086184518
head 9.046335917691792 -1.8559755915900555 0.0744696081096976
rclavicle -6.595153661756922E-16 -4.804769037915296E-16
rhumerus -23.882912403421273 -18.856283293741612 -75.0113009254939
rradius 27.03627446331073
rwrist 6.413295235074337
rhand -15.869637737258984 21.017080676192236
rfingers 7.125020000000035
rthumb 10.304100267879479 -8.468057457016169
lclavicle -6.621881433544921E-16 -3.133777047899579E-16
lhumerus -29.769215336141606 1.4086466401477127 78.20660126813726
lradius 28.7177081229
lwrist 3.2317514794793922
lhand -23.94768017650897 23.320779148075744
lfingers 7.125020000000042
lthumb 2.4733501666771147 53.01298483113419
rfemur -2.6553159431245774 -7.9512557125901395 14.18041157279356
rtibia 38.97834106814711
rfoot -8.967092250302782 -8.168911178442466
rtoes 6.31417570515773
lfemur -13.954398031982876 -0.5942482629868859 -20.721998221405734
ltibia 34.22528284224558
lfoot -9.082526296832063 -0.5691648523234214
ltoes -2.1495618652229425
203
root 0 0 0 -1.092354224370812 -2.7077095622591116 -2.4471366000456376
lowerback 9.439919781879208 0.3494255488523279 0.6738196939359029
upperback 0.0070130855301400175 0.6815899581961953 1.7362918697989755
thorax -5.183010072127102 0.3538679053220255 1.3505567657230881
lowerneck -16.488433135111926 -2.9793726323620158 -1.9433313798013474
upperneck 19.866243982645464 -3.8154405468827552 0.6841366052597171
head 9.047861567578861 -1.8523839642892566 0.07636780169389668
rclavicle -6.599131472490226E-16 -4.805967675654494E-16
rhumerus -23.841488552371437 -18.861391751022744 -74.97932890041426
rradius 27.037345557176824
rwrist 6.435250728696918
rhand -15.850334867345612 21.00140025509501
rfingers 7.125020000000034
rthumb 10.323372621755926 -8.482094610748709
lclavicle -6.610653961556078E-16 -3.1548259981508516E-16
lhumerus -29.73995494843753 1.413948393374259 78.1602197741551
lradius 28.72620720944107
lwrist 3.2123010517833848
lhand -23.91332507737824 23.32102802616177
lfingers 7.125020000000041
lthumb 2.5062141564261644 53.00968789269586
rfemur -2.5048927595345987 -8.13418993847219 14.005629679242318
rtibia 38.9818720026349
rfoot -8.988386549904865 -8.193138294009213
rtoes 6.347921632997995
lfemur -14.001823193991129 -0.5813697787451897 -20.732400905337535
ltibia 34.241093811298384
lfoot -9.098097871351062 -0.5455690743544253
ltoes -2.130487237773126
204
root 0 0 0 -1.0410040473069166 -2.736292879165653 -2.459830718069326
lowerback 9.414385941766085 0.3508881167754818 0.670130224145578
upperback -0.010294184370579273 0.6829015116871702 1.7371402220862813
thorax -5.187339945918064 0.35476303648551694 1.3540565909999955
lowerneck -16.478273922272813 -2.973084483293135 -1.939353377075764
upperneck 19.872372917425817 -3.8085656983036698 0.6898054848980792
head 9.048636108768717 -1.8485193776907294 0.07816561555982227
rclavicle -6.591649174947694E-16 -4.78690251808269E-16
rhumerus -23.746979110598637 -18.8700767238838 -74.92235730993978
rradius 27.03844999545767
rwrist 6.481257859076429
rhand -15.80914001079645 20.967761292209246
rfingers 7.125020000000033
rthumb 10.362707536838325 -8.51063006862019
lclavicle -6.594781507248994E-16 -3.174202445331607E-16
lhumerus -29.69334143587733 1.424342447562136 78.08604389386406
lradius 28.737956993902944
lwrist 3.177011014987528
lhand -23.86050389099461 23.322728975647752
lfingers 7.12502000000004
lthumb 2.557321884657444 53.00544087309251
rfemur -2.3380182418938773 -8.336961707986205 13.806531058773544
rtibia 38.9923309854527
rfoot -9.009839996980402 -8.219340945262472
rtoes 6.387227300733006
lfemur -14.10411019295153 -0.5512709163897753 -20.754888886222055
ltibia 34.27981977147672
lfoot -9.130813978058262 -0.4964854311750386
ltoes -2.090891026795017
205
root 0 0 0 -0.998362808891283 -2.756854414548238 -2.469368236025886
lowerback 9.392484473860456 0.35159801610996444 0.6666192573572931
upperback -0.025013279727886584 0.6835259657527575 1.7382587274732995
thorax -5.190738365616443 0.3552253241223091 1.3575042362163434
lowerneck -16.469200469600544 -2.9685113211887044 -1.9365232318236276
upperneck 19.878843006471534 -3.8035817440186284 0.6942199461236482
head 9.049769470941277 -1.8458977976583646 0.07954413871881227
rclavicle -6.58130770046616E-16 -4.795736985032606E-16
rhumerus -23.679538881082735 -18.876930795339348 -74.8803130526898
rradius 27.040200728365825
rwrist 6.5118415531545
rhand -15.780703195125337 20.944336837525412
rfingers 7.125020000000032
rthumb 10.3898448819707 -8.530549852058495
lclavicle -6.582338001185916E-16 -3.1915378830780676E-16
lhumerus -29.654029096152577 1.4330614221290547 78.02421710619548
lradius 28.748137259361513
lwrist 3.1478411855123785
lhand -23.817093642127972 23.324069742832766
lfingers 7.125020000000039
lthumb 2.5995411038740883 53.00187005009839
rfemur -2.177838024992724 -8.530927507124701 13.617733789860097
rtibia 38.999878116287135
rfoot -9.031548201602297 -8.244363052305243
rtoes 6.423668329670175
lfemur -14.182019335551523 -0.5288189284897111 -20.7726144311659
ltibia 34.30678332905598
lfoot -9.157569294498543 -0.45859782739143284
ltoes -2.0610463542448105
206
root 0 0 0 -1.1637837961647293 -2.6738120591763703 -2.4309449492852027
lowerback 9.4769434653732 0.34831317560280795 0.6797717218609138
upperback 0.03189334147680256 0.6805998551753905 1.7345386692441886
thorax -5.17737770826057 0.3531028466060034 1.3446129888432727
lowerneck -16.5037758856282 -2.9868516101185785 -1.948045092347884
upperneck 19.854888033855445 -3.823272192162753 0.6768154958306107
head 9.045933148218143 -1.856570834715051 0.07411735476099168
rclavicle -6.598173397004968E-16 -4.802043185155837E-16
rhumerus -23.90757957870578 -18.85377870563631 -75.02675716482794
rradius 27.0356455813315
rwrist 6.401957064368382
rhand -15.880139329355652 21.025715961807634
rfingers 7.125020000000035
rthumb 10.294069352255706 -8.460711308752517
lclavicle -6.626773955425965E-16 -3.1274144861766125E-16
lhumerus -29.783561998788123 1.4053799276149235 78.22937926696889
lradius 28.714016652277174
lwrist 3.2425902797782484
lhand -23.963669212733652 23.320287190402492
lfingers 7.125020000000042
lthumb 2.457819291515573 53.014292587429466
rfemur -2.712027410136642 -7.882371761459368 14.247558842008928
rtibia 38.975242440395284
rfoot -8.959519956937747 -8.160027856221323
rtoes 6.301109405222277
lfemur -13.925977527436338 -0.602464222852845 -20.71554766618476
ltibia 34.215362838927035
lfoot -9.072808603419498 -0.5829725624401263
ltoes -2.160470854778966
207
root 0 0 0 -1.0994772420851646 -2.705216931918148 -2.445960118143285
lowerback 9.443804278583315 0.34945341546768627 0.6745625518959706
upperback 0.009540704930632415 0.6816248109176558 1.7359916289969028
thorax -5.182528284002506 0.35386306687278885 1.3497999752348293
lowerneck -16.490115482219096 -2.9799344186683885 -1.943669708020281
upperneck 19.864822938217728 -3.8160932395432803 0.683487062516352
head 9.047549092122761 -1.8526615540294538 0.0761637934578524
rclavicle -6.601146713081483E-16 -4.803931746624704E-16
rhumerus -23.8583584543835 -18.859680187407527 -74.98986847004511
rradius 27.036905931219398
rwrist 6.427511813291101
rhand -15.857485410060702 21.007284059897344
rfingers 7.125020000000034
rthumb 10.316545020010457 -8.47708884409812
lclavicle -6.614564324844682E-16 -3.1499098977995084E-16
lhumerus -29.751232284783654 1.4114164610659294 78.17805397792452
lradius 28.72328445583583
lwrist 3.220755206638726
lhand -23.925889861787407 23.320660399421218
lfingers 7.125020000000041
lthumb 2.494009739836848 53.010735220797535
rfemur -2.5478007349745013 -8.081931288207727 14.056585545330563
rtibia 38.979295630238425
rfoot -8.982682091662516 -8.186414643398116
rtoes 6.337937600921755
lfemur -13.981774686464867 -0.5871615506876946 -20.727848057132835
ltibia 34.23410211351114
lfoot -9.091217584285678 -0.5553165142178784
ltoes -2.138179474642511
208
root 0 0 0 -1.0454935432887176 -2.735168094368385 -2.4593135688633723
lowerback 9.416945718922296 0.35097825224350776 0.6706953928663784
upperback -0.008664892636899069 0.6830050720795301 1.7368938325312948
thorax -5.187064094555341 0.35480077842385727 1.3534785410381907
lowerneck -16.479420707650597 -2.973351434788864 -1.939500022703084
upperneck 19.87132351404214 -3.808893735676784 0.6894252053017524
head 9.048387280737577 -1.8486240809092926 0.07804470917274486
rclavicle -6.592988033642648E-16 -4.785418773814761E-16
rhumerus -23.758454487498938 -18.868918453661014 -74.92947510760871
rradius 27.038147003865795
rwrist 6.47600686692105
rhand -15.813969515877938 20.971739510047307
rfingers 7.125020000000033
rthumb 10.358100066403928 -8.507246267660154
lclavicle -6.597998714266807E-16 -3.1703263234124713E-16
lhumerus -29.702481524669764 1.4223262289095224 78.10042012947324
lradius 28.735570544188864
lwrist 3.1837967029717813
lhand -23.870674667750077 23.322447408143066
lfingers 7.12502000000004
lthumb 2.5474429383625683 53.006305800005386
rfemur -2.371302726014065 -8.296311320575967 13.846184303489451
rtibia 38.990146365324456
rfoot -9.005437060865718 -8.214123847226489
rtoes 6.379402813719324
lfemur -14.089750312464986 -0.5554187922711851 -20.751627554702967
ltibia 34.27480371668616
lfoot -9.125875880361331 -0.5034686401906612
ltoes -2.096396217428815
